Coordinates
version=1
nRows=26
nColumns=22
inDegrees=yes

Units are S.I. units (second, meters, Newtons, ...)
If the header above contains a line with 'inDegrees', this indicates whether rotational values are in degrees (yes) or radians (no).

endheader
time	pelvis_tilt	pelvis_list	pelvis_rotation	pelvis_tx	pelvis_ty	pelvis_tz	hip_flexion_r	hip_adduction_r	hip_rotation_r	knee_angle_r	ankle_angle_r	subtalar_angle_r	hip_flexion_l	hip_adduction_l	hip_rotation_l	knee_angle_l	ankle_angle_l	subtalar_angle_l	lumbar_extension	lumbar_bending	lumbar_rotation
      0.01000000	     -0.64192071	      3.60895734	    178.05280844	      0.09067927	      1.02216350	      0.84994681	      1.64465995	      6.47223668	     -2.81336802	     -9.72265610	      7.82329535	     -4.88446730	      1.73109789	     -2.80360747	     -4.54352551	    -10.56966346	     10.44117733	     -1.58018016	     -9.52418082	      2.38990991	      2.60176647
      0.02000000	     -0.64700999	      3.60871949	    178.05270594	      0.09071281	      1.02216523	      0.84989490	      1.64372428	      6.47562450	     -2.78998767	     -9.72794893	      7.82834774	     -4.88398811	      1.73642264	     -2.80671362	     -4.51319873	    -10.58740717	     10.45568970	     -1.57313722	     -9.52607283	      2.38946212	      2.60570449
      0.03000000	     -0.65507044	      3.60953727	    178.05266358	      0.09075297	      1.02216928	      0.84983520	      1.64650489	      6.47996816	     -2.78313105	     -9.74494059	      7.83148558	     -4.88384357	      1.74382066	     -2.81222191	     -4.49738871	    -10.61348326	     10.46419317	     -1.56777044	     -9.53145569	      2.39173120	      2.60862958
      0.04000000	     -0.65868924	      3.61641411	    178.05972552	      0.09080440	      1.02215743	      0.84977789	      1.66031924	      6.49062952	     -2.79363830	     -9.77242788	      7.84636397	     -4.88358380	      1.76843923	     -2.82577504	     -4.48525630	    -10.66040072	     10.49559159	     -1.55243061	     -9.53311891	      2.40255422	      2.60468681
      0.05000000	     -0.67032412	      3.61480916	    178.05925882	      0.09085883	      1.02216616	      0.84969795	      1.66539370	      6.49309583	     -2.78618619	     -9.79888173	      7.84492585	     -4.88359817	      1.77735889	     -2.82970094	     -4.46630599	    -10.69556661	     10.49605728	     -1.54927636	     -9.54451743	      2.40198321	      2.61007954
      0.06000000	     -0.67957670	      3.61996910	    178.06875052	      0.09092350	      1.02216001	      0.84962981	      1.67919105	      6.50211188	     -2.80058701	     -9.83607285	      7.86179879	     -4.88485431	      1.80117064	     -2.84207801	     -4.45200233	    -10.75015402	     10.52408546	     -1.53984703	     -9.55595856	      2.41137491	      2.60600511
      0.07000000	     -0.69362969	      3.61855266	    178.06960912	      0.09098818	      1.02216850	      0.84953965	      1.68515060	      6.50556162	     -2.79200691	     -9.86785728	      7.86099403	     -4.88530156	      1.81068535	     -2.84634198	     -4.43024383	    -10.78968645	     10.52557615	     -1.53744135	     -9.57521178	      2.41123815	      2.61072441
      0.08000000	     -0.71045094	      3.61897339	    178.07493708	      0.09105674	      1.02217829	      0.84945382	      1.69105172	      6.51077221	     -2.78924635	     -9.90522632	      7.86630047	     -4.88663897	      1.82110144	     -2.85273507	     -4.41065409	    -10.83510927	     10.53381259	     -1.53512636	     -9.59957501	      2.41395928	      2.61387239
      0.09000000	     -0.72830364	      3.62015418	    178.08286915	      0.09112800	      1.02218720	      0.84937106	      1.69687924	      6.51657040	     -2.79138058	     -9.94418892	      7.87538020	     -4.88871829	      1.83175502	     -2.86012416	     -4.39238052	    -10.88164485	     10.54609414	     -1.53274597	     -9.62789784	      2.41849335	      2.61481131
      0.10000000	     -0.74644014	      3.62148115	    178.09337168	      0.09119995	      1.02219650	      0.84929108	      1.70261367	      6.52254834	     -2.79730861	     -9.98317550	      7.88663631	     -4.89154209	      1.84156096	     -2.86745511	     -4.37482873	    -10.92685700	     10.55999739	     -1.53020219	     -9.65847766	      2.42407471	      2.61363744
      0.11000000	     -0.76418607	      3.62243589	    178.10529470	      0.09127417	      1.02220486	      0.84921287	      1.70827138	      6.52805269	     -2.80554569	    -10.02135945	      7.89862650	     -4.89510847	      1.85072904	     -2.87428448	     -4.35734397	    -10.96886390	     10.57320109	     -1.52756584	     -9.69081141	      2.42988948	      2.61069457
      0.12000000	     -0.78134264	      3.62280124	    178.11869201	      0.09134590	      1.02221434	      0.84913734	      1.71433145	      6.53291344	     -2.81538988	    -10.05841481	      7.91078992	     -4.89946094	      1.85868013	     -2.88044959	     -4.34005808	    -11.00732287	     10.58472764	     -1.52492839	     -9.72330386	      2.43564059	      2.60622303
      0.13000000	     -0.80035212	      3.62499340	    178.14462760	      0.09139977	      1.02222030	      0.84908412	      1.71650372	      6.53821982	     -2.85808548	    -10.09409871	      7.93967897	     -4.91078296	      1.86637668	     -2.88824848	     -4.32049171	    -11.04795752	     10.61000608	     -1.51843698	     -9.75421851	      2.44669744	      2.58718286
      0.14000000	     -0.81184261	      3.62214184	    178.15580463	      0.09147456	      1.02222592	      0.84900278	      1.72588185	      6.54085255	     -2.85339356	    -10.12580686	      7.93956334	     -4.91426818	      1.87366549	     -2.89058879	     -4.30189170	    -11.07332432	     10.60852761	     -1.51644508	     -9.78259787	      2.44888213	      2.58439990
      0.15000000	     -0.82396227	      3.62013110	    178.17044358	      0.09154792	      1.02223103	      0.84892911	      1.73553680	      6.54375651	     -2.85976719	    -10.15965582	      7.94648546	     -4.91971833	      1.88193842	     -2.89394071	     -4.28541509	    -11.10103820	     10.60994590	     -1.51450678	     -9.81173255	      2.45353465	      2.57918302
      0.16000000	     -0.83446235	      3.61816120	    178.18937002	      0.09162138	      1.02223289	      0.84886287	      1.74684780	      6.54624517	     -2.87591371	    -10.19281029	      7.95778778	     -4.92731871	      1.89210641	     -2.89750992	     -4.26855234	    -11.12814763	     10.61360545	     -1.51214177	     -9.83940516	      2.45987993	      2.56889369
      0.17000000	     -0.84184065	      3.61568296	    178.21219567	      0.09169155	      1.02223105	      0.84880254	      1.75948012	      6.54812422	     -2.89672779	    -10.22316860	      7.96903367	     -4.93609992	      1.90539162	     -2.90052698	     -4.24952018	    -11.15263977	     10.61694776	     -1.50925562	     -9.86237981	      2.46685987	      2.55539413
      0.18000000	     -0.84484227	      3.61283796	    178.23814806	      0.09176239	      1.02222241	      0.84874752	      1.77588541	      6.55002087	     -2.92361021	    -10.25024456	      7.97972596	     -4.94645265	      1.92285415	     -2.90261696	     -4.22592560	    -11.17644556	     10.61921203	     -1.50540037	     -9.88050485	      2.47500924	      2.53798242
      0.19000000	     -0.84358897	      3.60747911	    178.24993688	      0.09179683	      1.02221668	      0.84867001	      1.78119981	      6.55075106	     -2.92454438	    -10.25122369	      7.98050955	     -4.94740992	      1.92803943	     -2.90236945	     -4.22580227	    -11.17379683	     10.61966124	     -1.50503483	     -9.88837768	      2.47938878	      2.53889342
      0.20000000	     -0.83196698	      3.60687118	    178.30573444	      0.09188649	      1.02217952	      0.84866338	      1.82027264	      6.55240758	     -3.00801559	    -10.28905138	      8.00304921	     -4.97151877	      1.97704604	     -2.90685870	     -4.16616573	    -11.21719024	     10.62381165	     -1.49339252	     -9.89069929	      2.49732729	      2.48937419
      0.21000000	     -0.83052147	      3.60119386	    178.32334129	      0.09195322	      1.02217312	      0.84858790	      1.83516970	      6.55338418	     -3.00419778	    -10.30610100	      7.99916956	     -4.97535211	      1.99189853	     -2.90666725	     -4.14949932	    -11.22918653	     10.62028250	     -1.49087844	     -9.90448428	      2.50211410	      2.48831531
      0.22000000	     -0.82774333	      3.59503854	    178.33746987	      0.09199517	      1.02216644	      0.84851139	      1.84147806	      6.55304398	     -3.00420112	    -10.30645961	      7.99960604	     -4.97614097	      1.99898784	     -2.90653623	     -4.14952407	    -11.22527453	     10.62009542	     -1.49039183	     -9.91505023	      2.50841745	      2.49122704
      0.23000000	     -0.80541396	      3.59656959	    178.39735978	      0.09208844	      1.02211872	      0.84850706	      1.88959316	      6.55779533	     -3.08809424	    -10.33937894	      8.01465692	     -4.99777883	      2.05839140	     -2.91347598	     -4.07977857	    -11.26492095	     10.61480052	     -1.47322116	     -9.90926567	      2.53215655	      2.44692990
      0.24000000	     -0.80147798	      3.58936099	    178.41149144	      0.09213029	      1.02211261	      0.84842393	      1.89633551	      6.55728095	     -3.08593439	    -10.33846419	      8.01441373	     -4.99829541	      2.06609767	     -2.91263290	     -4.07997516	    -11.26015724	     10.61504642	     -1.47278903	     -9.92262260	      2.53782175	      2.45161804
      0.25000000	     -0.78023355	      3.58638838	    178.45975772	      0.09222197	      1.02207207	      0.84839043	      1.93910943	      6.55918077	     -3.13984884	    -10.36452702	      8.02005608	     -5.01620991	      2.11761642	     -2.91554425	     -4.01731471	    -11.29036869	     10.60957918	     -1.45406355	     -9.92440770	      2.55311010	      2.42831681
      0.26000000	     -0.77539847	      3.57919303	    178.47861022	      0.09228265	      1.02206529	      0.84831385	      1.95166299	      6.55821576	     -3.14288524	    -10.37123300	      8.02017977	     -5.01921619	      2.13450175	     -2.91500678	     -4.00374155	    -11.29912183	     10.60591804	     -1.45049442	     -9.94630347	      2.56141171	      2.43813656
